@startuml
title Discovery Decision Maker FSM

legend
    FSM keep track of processed packet/notifications using packet-id. And
    ignore all "outdated" notifications - i.e. notifications with packet-id
    lover than last processed.
endlegend

[*] --> Init

Init -> Discovered : discovered
Init -d-> Unstable : fail

Unstable : enter / save fail time
Unstable -d-> Failed : tick, failed [time > fail-time]
Unstable -> Discovered : discovered

Failed : enter / emit fail
Failed -> Discovered : discovered

Discovered -> Unstable : fail
Discovered : enter / emit discovered
Discovered : discovered / emit discovered

@enduml
