Internal data:
* reference
* effective-status
* port-state-monitor
* poll-monitor
* bfd-monitor
* round-trip-monitor

Input signals:
* isl-up
* isl-down
* isl-move
* BFD-up
* BFD-down
* BFD-kill
* BFD-fail
* BFD-properties-update
* round-trip-status

Internal(self-injected) signals
* _become_down

Output signals:
* bisl-up (notify BFD-port, notify reroute)
* bisl-down (notify reroute)
* bisl-bfd-properties-update
* bisl-bfd-disable
* isl-move

@startuml
title ISL FSM

[*] --> OPERATIONAL

state OPERATIONAL {
    [*] --> PENDING

    PENDING --> ACTIVE : _become_up
    PENDING --> INACTIVE : _become_down
    PENDING --> MOVED : _become_moved

    state ACTIVE {
        [*] --> SET_UP_RESOURCES

        SET_UP_RESOURCES --> USABLE : _resources_done
        SET_UP_RESOURCES : enter / init attempts count from config
        SET_UP_RESOURCES : enter / send install isl rules for A-end
        SET_UP_RESOURCES : enter / send install isl rules for Z-end
        SET_UP_RESOURCES : isl-rule-installed / mark setup done for mentioned endpoint
        SET_UP_RESOURCES : isl-rule-installed [both sides are valid] / emit _setup_done
        SET_UP_RESOURCES : isl-rule-failed [has attempts] / emit install isl rules for failed endpoint
        SET_UP_RESOURCES : isl-rule-failed [!has attempts] / emit _setup_done

        USABLE : enter / persist state
        USABLE : enter [isBfdEnabled] / emit bisl-bfd-properties-update
        USABLE : enter / emit reroute-down
    }
    ACTIVE --> INACTIVE : _become_down
    ACTIVE --> MOVED : _become_moved

    INACTIVE --> ACTIVE : _become_up
    INACTIVE -r-> MOVED : _become_moved
    INACTIVE : enter / persist state
    INACTIVE : enter / emit isl-down
    INACTIVE : enter / emit reroute-affected

    MOVED --> ACTIVE : _become_up
    MOVED : enter / persist state
    MOVED : enter / emit isl-move
    MOVED : enter / emit bisl-bfd-disable
    MOVED : enter / emit disable auxiliary-poll-mode
    MOVED : enter / emit reroute-affected
}
OPERATIONAL --> CLEAN_UP_RESOURCES : isl-remove [effective_status != ACTIVE]
OPERATIONAL : enter / setup discovery monitors
OPERATIONAL : enter / load persisted state
OPERATIONAL : enter [effective_status == ACTIVE && isBfdEnabled] / emit bisl-bfd-properties-update
OPERATIONAL : isl-(up|down|move) / evaluate-state (can emit sync and|or _become_(up|down|moved))
OPERATIONAL : bfd-(up|down|kill|fail) / evaluate-state (can emit sync and|or _become_(up|down))
OPERATIONAL : bfd-(up|down) / emit enable auxiliary-poll-mode
OPERATIONAL : bfd-(kill) / emit disable auxiliary-poll-mode
OPERATIONAL : bfd-properties-update / emit bfd-kill
OPERATIONAL : bfd-properties-update / emit bisl-bfd-properties-update
OPERATIONAL : round-trip-status / evaluate-state (can emit sync and|or _become_(up|down))
OPERATIONAL : _flush / persist discovery data
OPERATIONAL : exit / emit bisl-bfd-disable
OPERATIONAL : exit / emit disable auxiliary-poll-mode

CLEAN_UP_RESOURCES : enter / init attempts count from config
CLEAN_UP_RESOURCES : enter / send remove isl rules for A-end endpoint
CLEAN_UP_RESOURCES : enter / send remove isl rules for Z-end endpoint
CLEAN_UP_RESOURCES : isl-rule-installed / mark remove done for mentioned endpoint
CLEAN_UP_RESOURCES : isl-rule-removed [both endpoints are valid] / emit isl-remove-finished
CLEAN_UP_RESOURCES : isl-rule-failed [has attempts] / emit remove isl rules for failed endpoint
CLEAN_UP_RESOURCES : isl-rule-failed [!has attempts] / emit isl-remove-finished
CLEAN_UP_RESOURCES --> DELETED : _resources_done
CLEAN_UP_RESOURCES --> OPERATIONAL : isl-(up|move)|round-trip-status[status!=down]

DELETED -> [*]
DELETED : enter / emit isl-removed-notification
@enduml
